<svg width="143" height="28" viewBox="0 0 143 28" fill="none" xmlns="http://www.w3.org/2000/svg">
<path d="M6 20L0 14L6 8L7.425 9.425L2.825 14.025L7.4 18.6L6 20V20M14 20L12.575 18.575L17.175 13.975L12.6 9.4L14 8L20 14L14 20V20" fill="#F7DF1E"/>
<path d="M33.32 21V7H42.32V9.4H35.96V12.74H41.76V15.14H35.96V18.6H42.44V21H33.32ZM42.14 25V22.84H43.456C43.832 22.84 44.02 22.64 44.02 22.24V11.08H46.54V22.76C46.54 23.44 46.34 23.9833 45.94 24.39C45.54 24.7967 45.0067 25 44.34 25H42.14ZM45.28 9.92C44.8267 9.92 44.4433 9.77333 44.13 9.48C43.8167 9.18667 43.66 8.8 43.66 8.32C43.66 7.84 43.8167 7.45333 44.13 7.16C44.4433 6.86667 44.8267 6.72 45.28 6.72C45.7467 6.72 46.1333 6.86667 46.44 7.16C46.7467 7.45333 46.9 7.84 46.9 8.32C46.9 8.8 46.7467 9.18667 46.44 9.48C46.1333 9.77333 45.7467 9.92 45.28 9.92ZM53.36 21.28C52.3733 21.28 51.5033 21.07 50.75 20.65C49.9967 20.23 49.41 19.6367 48.99 18.87C48.57 18.1033 48.36 17.2 48.36 16.16V15.92C48.36 14.88 48.5667 13.9767 48.98 13.21C49.3933 12.4433 49.9733 11.85 50.72 11.43C51.4667 11.01 52.3333 10.8 53.32 10.8C54.2933 10.8 55.14 11.0167 55.86 11.45C56.58 11.8833 57.14 12.4833 57.54 13.25C57.94 14.0167 58.14 14.9067 58.14 15.92V16.78H50.92C50.9467 17.46 51.2 18.0133 51.68 18.44C52.16 18.8667 52.7467 19.08 53.44 19.08C54.1467 19.08 54.6667 18.9267 55 18.62C55.3333 18.3133 55.5867 17.9733 55.76 17.6L57.82 18.68C57.6333 19.0267 57.3633 19.4033 57.01 19.81C56.6567 20.2167 56.1867 20.5633 55.6 20.85C55.0133 21.1367 54.2667 21.28 53.36 21.28ZM50.94 14.9H55.58C55.5267 14.3267 55.2967 13.8667 54.89 13.52C54.4833 13.1733 53.9533 13 53.3 13C52.62 13 52.08 13.1733 51.68 13.52C51.28 13.8667 51.0333 14.3267 50.94 14.9ZM59.88 21V11.08H62.36V12.2H62.72C62.8667 11.8 63.11 11.5067 63.45 11.32C63.79 11.1333 64.1867 11.04 64.64 11.04H65.84V13.28H64.6C63.96 13.28 63.4333 13.45 63.02 13.79C62.6067 14.13 62.4 14.6533 62.4 15.36V21H59.88ZM71.6 21.28C70.64 21.28 69.77 21.08 68.99 20.68C68.21 20.28 67.5933 19.7 67.14 18.94C66.6867 18.18 66.46 17.26 66.46 16.18V15.9C66.46 14.82 66.6867 13.9 67.14 13.14C67.5933 12.38 68.21 11.8 68.99 11.4C69.77 11 70.64 10.8 71.6 10.8C72.5467 10.8 73.36 10.9667 74.04 11.3C74.72 11.6333 75.27 12.09 75.69 12.67C76.11 13.25 76.3867 13.9067 76.52 14.64L74.08 15.16C74.0267 14.76 73.9067 14.4 73.72 14.08C73.5333 13.76 73.27 13.5067 72.93 13.32C72.59 13.1333 72.1667 13.04 71.66 13.04C71.1533 13.04 70.6967 13.15 70.29 13.37C69.8833 13.59 69.5633 13.9167 69.33 14.35C69.0967 14.7833 68.98 15.3133 68.98 15.94V16.14C68.98 16.7667 69.0967 17.2967 69.33 17.73C69.5633 18.1633 69.8833 18.49 70.29 18.71C70.6967 18.93 71.1533 19.04 71.66 19.04C72.42 19.04 72.9967 18.8433 73.39 18.45C73.7833 18.0567 74.0333 17.54 74.14 16.9L76.58 17.48C76.4067 18.1867 76.11 18.83 75.69 19.41C75.27 19.99 74.72 20.4467 74.04 20.78C73.36 21.1133 72.5467 21.28 71.6 21.28ZM78.16 21V11.08H80.68V21H78.16ZM79.42 9.92C78.9667 9.92 78.5833 9.77333 78.27 9.48C77.9567 9.18667 77.8 8.8 77.8 8.32C77.8 7.84 77.9567 7.45333 78.27 7.16C78.5833 6.86667 78.9667 6.72 79.42 6.72C79.8867 6.72 80.2733 6.86667 80.58 7.16C80.8867 7.45333 81.04 7.84 81.04 8.32C81.04 8.8 80.8867 9.18667 80.58 9.48C80.2733 9.77333 79.8867 9.92 79.42 9.92ZM87.64 21.28C86.68 21.28 85.81 21.08 85.03 20.68C84.25 20.28 83.6333 19.7 83.18 18.94C82.7267 18.18 82.5 17.26 82.5 16.18V15.9C82.5 14.82 82.7267 13.9 83.18 13.14C83.6333 12.38 84.25 11.8 85.03 11.4C85.81 11 86.68 10.8 87.64 10.8C88.5867 10.8 89.4 10.9667 90.08 11.3C90.76 11.6333 91.31 12.09 91.73 12.67C92.15 13.25 92.4267 13.9067 92.56 14.64L90.12 15.16C90.0667 14.76 89.9467 14.4 89.76 14.08C89.5733 13.76 89.31 13.5067 88.97 13.32C88.63 13.1333 88.2067 13.04 87.7 13.04C87.1933 13.04 86.7367 13.15 86.33 13.37C85.9233 13.59 85.6033 13.9167 85.37 14.35C85.1367 14.7833 85.02 15.3133 85.02 15.94V16.14C85.02 16.7667 85.1367 17.2967 85.37 17.73C85.6033 18.1633 85.9233 18.49 86.33 18.71C86.7367 18.93 87.1933 19.04 87.7 19.04C88.46 19.04 89.0367 18.8433 89.43 18.45C89.8233 18.0567 90.0733 17.54 90.18 16.9L92.62 17.48C92.4467 18.1867 92.15 18.83 91.73 19.41C91.31 19.99 90.76 20.4467 90.08 20.78C89.4 21.1133 88.5867 21.28 87.64 21.28ZM94.2 21V11.08H96.72V21H94.2ZM95.46 9.92C95.0067 9.92 94.6233 9.77333 94.31 9.48C93.9967 9.18667 93.84 8.8 93.84 8.32C93.84 7.84 93.9967 7.45333 94.31 7.16C94.6233 6.86667 95.0067 6.72 95.46 6.72C95.9267 6.72 96.3133 6.86667 96.62 7.16C96.9267 7.45333 97.08 7.84 97.08 8.32C97.08 8.8 96.9267 9.18667 96.62 9.48C96.3133 9.77333 95.9267 9.92 95.46 9.92ZM103.74 21.28C102.753 21.28 101.867 21.08 101.08 20.68C100.293 20.28 99.6733 19.7 99.22 18.94C98.7667 18.18 98.54 17.2667 98.54 16.2V15.88C98.54 14.8133 98.7667 13.9 99.22 13.14C99.6733 12.38 100.293 11.8 101.08 11.4C101.867 11 102.753 10.8 103.74 10.8C104.727 10.8 105.613 11 106.4 11.4C107.187 11.8 107.807 12.38 108.26 13.14C108.713 13.9 108.94 14.8133 108.94 15.88V16.2C108.94 17.2667 108.713 18.18 108.26 18.94C107.807 19.7 107.187 20.28 106.4 20.68C105.613 21.08 104.727 21.28 103.74 21.28ZM103.74 19.04C104.513 19.04 105.153 18.79 105.66 18.29C106.167 17.79 106.42 17.0733 106.42 16.14V15.94C106.42 15.0067 106.17 14.29 105.67 13.79C105.17 13.29 104.527 13.04 103.74 13.04C102.967 13.04 102.327 13.29 101.82 13.79C101.313 14.29 101.06 15.0067 101.06 15.94V16.14C101.06 17.0733 101.313 17.79 101.82 18.29C102.327 18.79 102.967 19.04 103.74 19.04ZM114.88 21.28C113.587 21.28 112.527 21 111.7 20.44C110.873 19.88 110.373 19.08 110.2 18.04L112.52 17.44C112.613 17.9067 112.77 18.2733 112.99 18.54C113.21 18.8067 113.483 18.9967 113.81 19.11C114.137 19.2233 114.493 19.28 114.88 19.28C115.467 19.28 115.9 19.1767 116.18 18.97C116.46 18.7633 116.6 18.5067 116.6 18.2C116.6 17.8933 116.467 17.6567 116.2 17.49C115.933 17.3233 115.507 17.1867 114.92 17.08L114.36 16.98C113.667 16.8467 113.033 16.6633 112.46 16.43C111.887 16.1967 111.427 15.8733 111.08 15.46C110.733 15.0467 110.56 14.5133 110.56 13.86C110.56 12.8733 110.92 12.1167 111.64 11.59C112.36 11.0633 113.307 10.8 114.48 10.8C115.587 10.8 116.507 11.0467 117.24 11.54C117.973 12.0333 118.453 12.68 118.68 13.48L116.34 14.2C116.233 13.6933 116.017 13.3333 115.69 13.12C115.363 12.9067 114.96 12.8 114.48 12.8C114 12.8 113.633 12.8833 113.38 13.05C113.127 13.2167 113 13.4467 113 13.74C113 14.06 113.133 14.2967 113.4 14.45C113.667 14.6033 114.027 14.72 114.48 14.8L115.04 14.9C115.787 15.0333 116.463 15.21 117.07 15.43C117.677 15.65 118.157 15.9633 118.51 16.37C118.863 16.7767 119.04 17.3267 119.04 18.02C119.04 19.06 118.663 19.8633 117.91 20.43C117.157 20.9967 116.147 21.28 114.88 21.28ZM124.68 21.28C123.24 21.28 122.097 20.8867 121.25 20.1C120.403 19.3133 119.98 18.2133 119.98 16.8V15.48H122.62V16.8C122.62 17.4267 122.793 17.9167 123.14 18.27C123.487 18.6233 123.973 18.8 124.6 18.8C125.187 18.8 125.643 18.6267 125.97 18.28C126.297 17.9333 126.46 17.44 126.46 16.8V9.4H124.06V7H130.7V9.4H129.1V16.8C129.1 18.2533 128.707 19.3633 127.92 20.13C127.133 20.8967 126.053 21.28 124.68 21.28ZM137.22 21.28C136.14 21.28 135.187 21.0867 134.36 20.7C133.533 20.3133 132.887 19.76 132.42 19.04C131.953 18.32 131.72 17.4533 131.72 16.44V15.88H134.32V16.44C134.32 17.28 134.58 17.91 135.1 18.33C135.62 18.75 136.327 18.96 137.22 18.96C138.127 18.96 138.803 18.78 139.25 18.42C139.697 18.06 139.92 17.6 139.92 17.04C139.92 16.6533 139.81 16.34 139.59 16.1C139.37 15.86 139.05 15.6633 138.63 15.51C138.21 15.3567 137.7 15.2133 137.1 15.08L136.64 14.98C135.68 14.7667 134.857 14.4967 134.17 14.17C133.483 13.8433 132.957 13.4133 132.59 12.88C132.223 12.3467 132.04 11.6533 132.04 10.8C132.04 9.94667 132.243 9.21667 132.65 8.61C133.057 8.00333 133.63 7.53667 134.37 7.21C135.11 6.88333 135.98 6.72 136.98 6.72C137.98 6.72 138.87 6.89 139.65 7.23C140.43 7.57 141.043 8.07667 141.49 8.75C141.937 9.42333 142.16 10.2667 142.16 11.28V11.88H139.56V11.28C139.56 10.7467 139.457 10.3167 139.25 9.99C139.043 9.66333 138.747 9.42333 138.36 9.27C137.973 9.11667 137.513 9.04 136.98 9.04C136.18 9.04 135.59 9.19 135.21 9.49C134.83 9.79 134.64 10.2 134.64 10.72C134.64 11.0667 134.73 11.36 134.91 11.6C135.09 11.84 135.36 12.04 135.72 12.2C136.08 12.36 136.54 12.5 137.1 12.62L137.56 12.72C138.56 12.9333 139.43 13.2067 140.17 13.54C140.91 13.8733 141.487 14.3133 141.9 14.86C142.313 15.4067 142.52 16.1067 142.52 16.96C142.52 17.8133 142.303 18.5633 141.87 19.21C141.437 19.8567 140.823 20.3633 140.03 20.73C139.237 21.0967 138.3 21.28 137.22 21.28Z" fill="#F7DF1E"/>
</svg>
